<svg width="13" height="14" viewBox="0 0 13 14" fill="none" xmlns="http://www.w3.org/2000/svg">
<path fill-rule="evenodd" clip-rule="evenodd" d="M3.82593 1.18106C4.41214 0.595757 5.36174 0.596494 5.94688 1.18254L6.65433 1.89045L7.36263 1.18358C7.94933 0.598539 8.89878 0.599277 9.48403 1.18546C10.0694 1.77171 10.0686 2.72197 9.48248 3.30649L9.04259 3.74584L11.1529 3.74748C11.9811 3.74813 12.6524 4.42055 12.6518 5.24865L12.6514 5.74865C12.6509 6.4015 12.2329 6.95692 11.6503 7.16247L11.6463 12.2479C11.6457 13.076 10.9733 13.7473 10.1452 13.7467L3.14517 13.7413C2.31703 13.7406 1.6457 13.0683 1.64634 12.2401L1.65029 7.1547C1.06798 6.94825 0.650882 6.39218 0.651389 5.73933L0.651778 5.23933C0.652421 4.41123 1.3248 3.73985 2.15294 3.74049L4.26339 3.74213L3.82473 3.30264C3.23834 2.71684 3.23908 1.76623 3.82593 1.18106ZM5.66034 3.74322L7.64564 3.74476C7.66496 3.71442 7.68789 3.68569 7.71441 3.65916L8.77603 2.59868C8.97118 2.40411 8.97143 2.08736 8.77638 1.89201C8.58123 1.69659 8.26468 1.69634 8.06888 1.89155L7.00706 2.95122C6.81171 3.14619 6.49531 3.14598 6.30021 2.95076L5.23938 1.88926C5.04428 1.69388 4.72788 1.69363 4.53228 1.88895C4.33673 2.08394 4.33648 2.40033 4.53203 2.5957L5.59171 3.65751C5.61819 3.68408 5.64107 3.71285 5.66034 3.74322ZM6.1455 12.7436C5.47895 12.7431 4.4791 12.7423 3.14595 12.7413C2.8701 12.7411 2.64613 12.5168 2.64634 12.2409L2.65022 7.24168L4.36152 7.24301C4.63692 7.24322 4.8604 7.0201 4.86061 6.7447C4.86082 6.46925 4.6377 6.24582 4.3623 6.24561L2.20931 6.24394L2.151 6.24049C1.87514 6.24028 1.65117 6.016 1.65139 5.7401L1.65178 5.2401C1.65199 4.96425 1.87631 4.74028 2.15217 4.74049C4.13112 4.74203 5.46501 4.74307 6.15386 4.7436L6.1455 12.7436ZM7.15022 7.24438L10.6502 7.24709L10.6463 12.2471C10.6461 12.523 10.4218 12.7469 10.1459 12.7467C8.6764 12.7456 7.67615 12.7448 7.14525 12.7444L7.15022 7.24438ZM7.15137 4.74414C8.04047 4.74483 9.37417 4.74587 11.1524 4.74725C11.4283 4.74746 11.6522 4.97179 11.652 5.24764L11.6516 5.74764C11.6514 6.02354 11.4271 6.24746 11.1513 6.24725L7.15125 6.24414L7.15137 4.74414Z" fill="black"/>
</svg>
