<svg width="33" height="26" viewBox="0 0 33 26" fill="none" xmlns="http://www.w3.org/2000/svg">
<path fill-rule="evenodd" clip-rule="evenodd" d="M31.3977 23.8152L31.3982 21.4376L30.8167 21.4378L30.8164 22.8199C30.6226 22.5719 30.3448 22.4334 29.9829 22.4335C29.2333 22.4337 28.6517 23.0138 28.6515 23.816C28.6513 24.6182 29.2327 25.1979 29.9823 25.1977C30.37 25.1976 30.6479 25.059 30.816 24.8108L30.8159 25.1427L31.3974 25.1425L31.3977 23.8152ZM14.2033 22.493L15.1435 22.4927L15.1433 23.0178L14.1999 23.0181L14.1997 24.2069C14.1996 24.4807 14.3094 24.6482 14.5873 24.6482C14.7262 24.6481 14.9201 24.6191 15.0881 24.5095L15.256 25.0088C15.0621 25.1184 14.7842 25.2022 14.5355 25.2023C13.8699 25.2025 13.6212 24.845 13.6213 24.2361L13.6216 23.0183L13.095 23.0184L13.0951 22.4933L13.6217 22.4932L13.6219 21.691L14.2034 21.6908L14.2033 22.493ZM6.52003 23.4908L6.51967 25.1499L5.87672 25.1501L5.87704 23.6843C5.87713 23.2397 5.68333 22.9917 5.29563 22.9918C4.937 22.9919 4.6591 23.2143 4.659 23.6846L4.65868 25.1505L4.07712 25.1506L4.07744 23.6848C4.07753 23.2402 3.88373 22.9922 3.49603 22.9923C3.10832 22.9924 2.8595 23.2148 2.8594 23.6852L2.85908 25.151L2.27752 25.1512L2.27809 22.4965L2.85965 22.4964L2.85958 22.8282C3.07935 22.5253 3.35722 22.4415 3.63508 22.4414C4.05186 22.4412 4.32968 22.6087 4.52347 22.9115C4.77232 22.5506 5.1342 22.4409 5.46698 22.4408C6.13255 22.4406 6.52016 22.8561 6.52003 23.4908ZM20.0835 22.4332C19.7507 22.4333 19.5277 22.6009 19.3888 22.8201L19.3888 22.4882L18.8073 22.4884L18.8067 25.143L19.3883 25.1429L19.3886 23.648C19.3887 23.2067 19.5826 22.9553 19.9444 22.9552C20.0543 22.9552 20.1932 22.9841 20.3063 23.0099L20.4744 22.4557C20.3581 22.4332 20.1933 22.4332 20.0835 22.4332ZM11.541 22.4358C11.9578 22.4357 12.3455 22.5193 12.6233 22.7125L12.3777 23.183C12.2097 23.0993 11.8769 22.9608 11.5442 22.9609C11.2372 22.961 11.0433 23.0706 11.0433 23.2639C11.0433 23.4282 11.2371 23.4829 11.4859 23.5118L11.7637 23.5408C12.3162 23.6244 12.678 23.8723 12.6779 24.3427C12.6778 24.8388 12.2319 25.1998 11.4564 25.2C11.0397 25.2001 10.6229 25.0907 10.3192 24.8685L10.5972 24.4271C10.791 24.5655 11.0979 24.704 11.4856 24.7039C11.8733 24.7037 12.0963 24.5651 12.0963 24.3718C12.0964 24.2333 11.9284 24.1496 11.6247 24.0949L11.3468 24.066C10.7653 23.9856 10.4326 23.7344 10.4327 23.2931C10.4328 22.768 10.8755 22.436 11.541 22.4358ZM28.0961 22.4309C27.7633 22.431 27.5403 22.5985 27.4013 22.8177L27.4014 22.4858L26.8199 22.486L26.8193 25.1406L27.4008 25.1405L27.4012 23.6456C27.4013 23.2043 27.5952 22.9529 27.957 22.9528C28.0669 22.9528 28.2058 22.9817 28.3189 23.0075L28.487 22.4597C28.3739 22.4308 28.2092 22.4308 28.0961 22.4309ZM22.0796 25.2C21.2202 25.2003 20.6646 24.6206 20.6647 23.8184C20.6649 23.0162 21.2208 22.4329 22.0802 22.4359C22.4679 22.4358 22.7457 22.5162 23.0235 22.7384L22.7456 23.2089C22.5227 23.0446 22.2998 22.9609 22.051 22.961C21.5793 22.9869 21.2464 23.3189 21.2463 23.8182C21.2462 24.3433 21.5789 24.6751 22.0506 24.6749C22.3026 24.6749 22.5223 24.5942 22.7453 24.4267L23.0231 24.8969C22.7452 25.1161 22.4673 25.1999 22.0796 25.2ZM26.0442 23.8168L26.0445 22.4895L25.4629 22.4896L25.4628 22.8215C25.269 22.5735 24.9912 22.435 24.6293 22.4351C23.8798 22.4353 23.2981 23.0154 23.2979 23.8176C23.2977 24.6198 23.8792 25.1995 24.6287 25.1993C25.0164 25.1992 25.2943 25.0606 25.4624 24.8124L25.4623 25.1443L26.0439 25.1441L26.0442 23.8168ZM24.7132 22.9602C24.2124 22.9604 23.9087 23.3471 23.9086 23.8174C23.9085 24.2846 24.2153 24.6453 24.7129 24.6741C25.1846 24.674 25.5174 24.2873 25.5175 23.8169C25.5176 23.3208 25.1849 22.9601 24.7132 22.9602ZM16.9495 22.4342C16.1741 22.4344 15.6183 22.9887 15.6181 23.8167C15.6179 24.6479 16.1735 25.1986 16.978 25.1983C17.3657 25.1982 17.7535 25.0886 18.0604 24.8372L17.7827 24.4217C17.5597 24.5893 17.2818 24.6989 17.0072 24.699C16.6453 24.6991 16.2868 24.5317 16.2028 24.0646L18.1705 24.064L18.1705 23.8417C18.1965 22.9879 17.6959 22.434 16.9495 22.4342ZM17.6149 23.568C17.56 23.1556 17.3113 22.9334 16.9494 22.9335C16.5326 22.9337 16.2838 23.2108 16.2288 23.5684L17.6149 23.568ZM30.0668 22.9586C29.566 22.9588 29.2622 23.3455 29.2621 23.8158C29.262 24.283 29.5656 24.6437 30.0664 24.6725C30.5381 24.6724 30.871 24.2857 30.8711 23.8153C30.8712 23.3192 30.5385 22.9585 30.0668 22.9586ZM9.79284 23.8216L9.79312 22.4943L9.21156 22.4945L9.21149 22.8263C9.01769 22.5783 8.73987 22.4399 8.37801 22.44C7.62844 22.4402 7.04676 23.0203 7.04659 23.8224C7.04642 24.6246 7.62785 25.2044 8.37741 25.2041C8.76512 25.204 9.043 25.0654 9.21106 24.8173L9.21099 25.1491L9.79255 25.1489L9.79284 23.8216ZM8.43605 22.9651C7.93526 22.9652 7.63148 23.3519 7.63138 23.8223C7.63128 24.2894 7.9349 24.6501 8.43568 24.679C8.90739 24.6788 9.24025 24.2922 9.24036 23.8218C9.24046 23.3257 8.90776 22.9649 8.43605 22.9651Z" fill="black"/>
<rect width="8.7363" height="15.6508" transform="matrix(1 -0.000298169 -0.000215465 1 12.4336 2.33203)" fill="#FF5A00"/>
<path d="M13.0136 10.1573C13.0143 6.9775 14.5141 4.15489 16.8148 2.33075C15.1222 1.00394 12.9867 0.202383 10.6572 0.203078C5.1389 0.204723 0.672869 4.65837 0.671683 10.161C0.670498 15.6635 5.13461 20.1145 10.653 20.1129C12.9824 20.1122 15.1182 19.3094 16.8115 17.9815C14.5082 16.1845 13.013 13.337 13.0136 10.1573Z" fill="#EB001B"/>
<path d="M32.9548 10.1513C32.9536 15.6538 28.4875 20.1075 22.9692 20.1091C20.6397 20.1098 18.5043 19.3083 16.8116 17.9815C19.1415 16.1541 20.6121 13.3347 20.6128 10.1549C20.6135 6.97517 19.115 4.15345 16.815 2.33068C18.505 1.00286 20.6408 0.200031 22.9703 0.199337C28.4918 0.19769 32.9559 4.67767 32.9548 10.1513Z" fill="#F79E1B"/>
</svg>
