<svg width="48" height="14" viewBox="0 0 48 14" fill="none" xmlns="http://www.w3.org/2000/svg">
<path fill-rule="evenodd" clip-rule="evenodd" d="M4.72433 0.905179C4.74455 0.905052 4.76671 0.904669 4.79062 0.904256C5.26089 0.896135 6.41015 0.876289 6.91056 2.56141C7.26478 3.75423 7.82901 5.70814 8.60326 8.42313L8.91882 8.42304C9.75038 5.56021 10.3216 3.60597 10.6325 2.5603C11.1328 0.877829 12.3377 0.893962 12.9219 0.901786C12.9591 0.902284 12.9938 0.902748 13.0256 0.902738L17.1279 0.90152L17.1251 13.6261L12.944 13.6273L12.9456 6.12853L12.6652 6.12862L10.3328 13.6281L7.18703 13.629L4.85786 6.12539L4.57748 6.12547L4.57587 13.6298L0.394719 13.6311L0.39746 0.906509L4.72433 0.905179ZM23.1319 0.89973L23.1303 8.40411L23.4638 8.40401L26.3004 2.23237C26.851 1.0042 28.024 0.898271 28.024 0.898271L32.0701 0.897065L32.0674 13.6217L27.7989 13.6229L27.8005 6.11855L27.4669 6.11865L24.686 12.2903C24.1354 13.5129 22.9068 13.6244 22.9068 13.6244L18.8607 13.6256L18.8634 0.901003L23.1319 0.89973ZM42.2866 9.82815C44.3567 9.82753 46.2268 8.62207 46.8225 6.93947L33.7518 6.94337L33.7503 13.6212L37.8094 13.6199L37.8102 9.82949L42.2866 9.82815Z" fill="#0F754E"/>
<path d="M42.4841 0.893818L33.54 0.896484C33.7523 3.72935 36.1984 6.15379 38.7312 6.15303L47.1046 6.15053C47.5883 3.7959 45.9255 0.892791 42.4841 0.893818Z" fill="url(#paint0_linear_658_810)"/>
<defs>
<linearGradient id="paint0_linear_658_810" x1="47.1877" y1="1.57094" x2="33.5399" y2="1.56799" gradientUnits="userSpaceOnUse">
<stop stop-color="#1F5CD7"/>
<stop offset="1" stop-color="#02AEFF"/>
</linearGradient>
</defs>
</svg>
