<svg width="16" height="16" viewBox="0 0 16 16" fill="none" xmlns="http://www.w3.org/2000/svg">
<path fill-rule="evenodd" clip-rule="evenodd" d="M9.66837 9.95386L9.85235 10.0452L9.96009 9.9347L10.7463 9.14389C11.4759 8.41425 12.4934 8.38352 13.2451 9.05143L13.3416 9.14248L14.6468 10.4403L15.1311 10.9312C15.8754 11.6754 15.9061 12.6931 15.2236 13.4605L15.1305 13.5592L14.4871 14.1926L14.3373 14.3468C14.3143 14.3711 14.2921 14.3949 14.2703 14.4185L14.1426 14.561C13.5486 15.2151 12.7855 15.4904 11.868 15.4485C10.8845 15.4007 9.93298 15.1069 8.86766 14.5843C6.86559 13.6077 5.13666 12.2554 3.70874 10.5516C2.57389 9.22726 1.72189 7.83294 1.17052 6.33711C0.830422 5.41564 0.674412 4.6354 0.724059 3.8191C0.767424 3.15508 1.03318 2.58486 1.5191 2.11922L1.63153 2.01104L2.54657 1.10481L2.72439 0.935422C3.47732 0.266219 4.49538 0.296308 5.22465 1.02553L6.1266 1.92741L6.84695 2.6422L7.09268 2.89884C7.7578 3.64393 7.75803 4.59428 7.10158 5.33148L6.92219 5.51975L6.56782 5.87728L6.11094 6.3217C6.30136 6.7025 6.54978 7.07293 6.87548 7.47348C7.66491 8.44838 8.53095 9.24534 9.47132 9.84527L9.59624 9.91609C9.61874 9.92816 9.64259 9.94058 9.66837 9.95386ZM4.21436 2.036C4.01126 1.83293 3.84098 1.83298 3.62714 2.04689L3.45854 2.21044L2.74981 2.91515L2.50619 3.15151C2.27936 3.36879 2.16974 3.60411 2.14989 3.90833C2.11423 4.4942 2.23342 5.09031 2.5109 5.84215C3.00054 7.17043 3.76427 8.42035 4.7988 9.62761C6.10325 11.1839 7.6727 12.4115 9.496 13.301C10.4026 13.7457 11.1763 13.9846 11.9361 14.0215C12.4484 14.0449 12.7959 13.9195 13.0753 13.6122C13.2197 13.4462 13.3571 13.3015 13.5577 13.1021L14.1207 12.5493C14.3396 12.3303 14.3397 12.1605 14.1145 11.9353L13.7609 11.5759L12.3315 10.1532C12.1291 9.9505 11.9595 9.95055 11.7554 10.1547L11.0822 10.8305L10.6511 11.2741C10.3322 11.593 9.92571 11.6744 9.5144 11.47L9.06145 11.2481L8.88611 11.1562L8.71984 11.0604C7.62621 10.3631 6.64726 9.4622 5.76607 8.37397C5.28319 7.78018 4.92739 7.21757 4.65653 6.5743C4.51061 6.18713 4.59033 5.81168 4.88833 5.51594L5.41008 5.01236L5.73522 4.69055C5.76808 4.6574 5.8003 4.62467 5.83238 4.59188L6.04079 4.37496C6.20347 4.18955 6.20271 4.04984 6.03118 3.85567L5.82751 3.64345L4.21436 2.036Z" fill="black"/>
</svg>
