<svg width="14" height="14" viewBox="0 0 14 14" fill="none" xmlns="http://www.w3.org/2000/svg">
<path fill-rule="evenodd" clip-rule="evenodd" d="M0.986328 6.58496C0.986328 3.00996 3.91133 0.0849609 7.48633 0.0849609C11.0613 0.0849609 13.9863 3.00996 13.9863 6.58496C13.9863 10.16 11.0613 13.085 7.48633 13.085H0.986328V6.58496ZM4.07383 6.58496C4.07383 8.48079 5.64466 10.0516 7.5405 10.0516C8.62383 10.0516 9.653 9.56413 10.303 8.69746L8.8405 7.55996C8.5155 7.99329 8.028 8.20996 7.5405 8.20996C6.67383 8.20996 5.9155 7.50579 5.9155 6.58496C5.9155 5.71829 6.61966 4.95996 7.5405 4.95996C8.08216 4.95996 8.5155 5.17663 8.8405 5.55579L10.2488 4.41829C9.59883 3.60579 8.62383 3.11829 7.5405 3.11829C5.64466 3.11829 4.07383 4.68913 4.07383 6.58496Z" fill="black"/>
</svg>
