<svg width="28" height="28" viewBox="0 0 28 28" fill="none" xmlns="http://www.w3.org/2000/svg">
<path fill-rule="evenodd" clip-rule="evenodd" d="M17.6871 7.24147C17.7047 7.28405 17.7455 7.31324 17.7938 7.31673L23.3257 7.72099C25.2264 7.85825 25.9962 10.1991 24.5408 11.4116L20.2988 14.9361C20.2625 14.9662 20.2465 15.0148 20.2577 15.0602L21.5786 20.3704C22.0322 22.1939 20.0106 23.6396 18.3916 22.6487L13.6775 19.7619C13.6379 19.7377 13.5873 19.7376 13.5462 19.7627L8.82924 22.6411C7.20977 23.63 5.18909 22.1808 5.64552 20.3581L6.97464 15.05C6.98597 15.0045 6.97001 14.9559 6.93354 14.9255L2.69634 11.3938C1.24372 10.1799 2.01716 7.84022 3.91722 7.70601L9.45135 7.31015C9.49905 7.30684 9.53978 7.2777 9.55781 7.23407L11.6577 2.17284C12.3786 0.435479 14.8765 0.43742 15.5946 2.1759L17.6871 7.24147ZM13.7422 2.91884L13.7132 2.87599C13.6533 2.81887 13.5445 2.83305 13.5091 2.91866L11.4095 7.97877C11.1046 8.71638 10.4011 9.21877 9.59532 9.27579L4.06119 9.67165C3.94876 9.67954 3.90296 9.81815 3.98894 9.88995L8.225 13.4207C8.84191 13.9346 9.10977 14.7494 8.91637 15.522L7.58725 20.8302C7.56027 20.9382 7.6802 21.0242 7.77594 20.9657L12.4929 18.0874C13.1804 17.6674 14.0498 17.6681 14.7345 18.0889L19.447 20.9747C19.5433 21.0336 19.6631 20.948 19.6361 20.8396L18.3153 15.5292C18.1231 14.7564 18.3922 13.9421 19.0097 13.4293L23.2505 9.9057C23.3376 9.83325 23.292 9.69457 23.1787 9.6864L17.6468 9.28214C16.8405 9.22377 16.1377 8.72029 15.8342 7.98329L13.7422 2.91884ZM23.6059 3.23231L23.1735 3.73649C22.817 4.15215 22.1861 4.20434 21.7642 3.85307C21.3424 3.5018 21.2894 2.88009 21.6459 2.46443L22.0783 1.96025C22.4347 1.54459 23.0657 1.49241 23.4875 1.84367C23.9093 2.19494 23.9623 2.81667 23.6059 3.23231ZM26.6207 16.4538L26.0039 16.1971C25.495 15.9853 24.9084 16.2201 24.6935 16.7215C24.4788 17.2228 24.717 17.8009 25.2257 18.0125L25.8425 18.2692C26.3514 18.481 26.938 18.2462 27.1529 17.7448C27.3677 17.2435 27.1294 16.6654 26.6207 16.4538ZM5.17448 1.94712L5.60609 2.45197C5.9619 2.86818 5.90792 3.48981 5.48559 3.84042C5.0632 4.19103 4.43234 4.13787 4.07651 3.72165L3.6449 3.21681C3.28907 2.80061 3.34303 2.17897 3.7654 1.82835C4.18778 1.47774 4.81864 1.53091 5.17448 1.94712ZM14.6076 26.1654L14.6081 25.5062C14.6085 24.962 14.1611 24.5205 13.6089 24.5201C13.0566 24.5196 12.6085 24.9604 12.6081 25.5047L12.6076 26.1639C12.6072 26.7081 13.0545 27.1496 13.6068 27.15C14.159 27.1504 14.6072 26.7096 14.6076 26.1654ZM2.00204 17.9945L1.38484 18.2502C0.875737 18.4612 0.28948 18.2255 0.0753993 17.7238C-0.138671 17.2222 0.100498 16.6444 0.609602 16.4336L1.2268 16.1778C1.7359 15.9669 2.32216 16.2025 2.53624 16.7043C2.75031 17.2059 2.51114 17.7836 2.00204 17.9945Z" fill="black"/>
</svg>
