<svg width="46" height="15" viewBox="0 0 46 15" fill="none" xmlns="http://www.w3.org/2000/svg">
<path fill-rule="evenodd" clip-rule="evenodd" d="M32.3457 9.73954C32.3551 7.56589 30.55 6.62121 29.1057 5.86527C28.136 5.35781 27.3289 4.9354 27.3423 4.28336C27.3546 3.79 27.826 3.26441 28.858 3.12986C29.3691 3.06385 30.7812 3.0108 32.3805 3.74516L33.0069 0.823916C32.1475 0.514308 31.0418 0.216311 29.6661 0.216721C26.1349 0.217774 23.6505 2.08868 23.6301 4.76883C23.6066 6.75129 25.4037 7.85569 26.7552 8.51554C28.1474 9.18945 28.6141 9.62273 28.6075 10.2253C28.5974 11.149 27.4954 11.5582 26.4709 11.5737C24.73 11.6018 23.6982 11.1217 22.8801 10.741L22.8024 10.7049L22.1535 13.723C22.9891 14.1046 24.5293 14.436 26.1245 14.4524C29.8784 14.4513 32.334 12.6018 32.3457 9.73954ZM22.6582 0.470136L19.7018 14.2382L16.1297 14.2392L19.0861 0.471201L22.6582 0.470136ZM37.683 9.35519L39.565 4.18459L40.6443 9.35431L37.683 9.35519ZM44.9718 14.2306L41.6692 14.2316L41.2367 12.1753L36.6539 12.1766L35.9094 14.2333L32.1584 14.2345L37.521 1.47494C37.7774 0.863301 38.355 0.465456 39.0422 0.465251L42.0894 0.464343L44.9718 14.2306ZM11.7636 14.2405L17.5538 0.471658L13.8007 0.472777L10.0835 9.84412L8.5803 1.87731C8.40353 0.988013 7.70706 0.474594 6.93342 0.474825L0.8547 0.476637L0.770505 0.876305C2.01712 1.14668 3.43531 1.58136 4.29409 2.04632C4.81957 2.33155 4.96967 2.58001 5.14197 3.25513L7.98775 14.2417L11.7636 14.2405Z" fill="#1A1F71"/>
</svg>
